<svg xmlns="http://www.w3.org/2000/svg" width="1000" height="135" viewBox="0 0 1000 135">
    <defs>
      <linearGradient id="accent" gradientUnits="userSpaceOnUse" x1="0" y1="0" x2="1000" y2="0"><stop stop-color="#22d3ee"/><stop offset=".5" stop-color="#a78bfa"/><stop offset="1" stop-color="#f472b6"/></linearGradient>
      <radialGradient id="glow"><stop stop-color="#7c3aed" stop-opacity=".45"/><stop offset="1" stop-color="#7c3aed" stop-opacity="0"/></radialGradient>
      <radialGradient id="cyan-glow"><stop stop-color="#22d3ee" stop-opacity=".22"/><stop offset="1" stop-color="#22d3ee" stop-opacity="0"/></radialGradient>
      <pattern id="grid" width="32" height="32" patternUnits="userSpaceOnUse"><path d="M32 0H0V32" stroke="#b6b6ff" stroke-opacity=".045" fill="none"/></pattern>
      <clipPath id="bounds"><rect x="1" y="1" width="998" height="133" rx="18"/></clipPath>
    </defs>
    <rect width="1000" height="135" rx="18" fill="#0c1020"/>
    <g clip-path="url(#bounds)"><rect width="1000" height="135" fill="url(#grid)"/>
    <g font-family="DejaVu Sans, Arial, sans-serif"><rect x="16" y="16" width="310" height="103" rx="12" fill="#161b30" stroke="#c5b4ff" stroke-opacity="0.2"/>
          <g fill="none" stroke="#c5b4ff" stroke-width="2" stroke-linecap="round" stroke-linejoin="round"><g transform="translate(42 40) rotate(-25.0 17 20)"><ellipse cx="17" cy="29" rx="13" ry="14"/><ellipse cx="17" cy="17" rx="10" ry="9"/><path d="M14 14V-5H20V14M14-5V-14H20V-5"/><circle cx="17" cy="23" r="3"/><path d="M17-5V34"/></g>
        <path d="M83 34Q87.0 46 83 58M90 29Q96.0 46 90 63" opacity="0.35"/></g>
          <text x="112" y="59" fill="#f0f3ff" font-size="21" font-weight="600">Guitar</text>
          <text x="112" y="87" fill="#a6b0ca" font-size="16">A little rhythm.</text><rect x="345" y="16" width="310" height="103" rx="12" fill="#161b30" stroke="#67e8f9" stroke-opacity="0.3062110127410357"/>
          <g fill="none" stroke="#67e8f9" stroke-width="2" stroke-linecap="round" stroke-linejoin="round"><path d="M380 35L367 48L380 61M410 35L423 48L410 61M402 30L390 66"/>
        <path d="M374 83H410" stroke-opacity=".3"/><path d="M374 83H392.0"/>
        <rect x="416" y="76" width="4" height="13" stroke="none" fill="#67e8f9" opacity="0.4"/></g>
          <text x="441" y="59" fill="#f0f3ff" font-size="21" font-weight="600">Coding</text>
          <text x="441" y="87" fill="#a6b0ca" font-size="16">One more idea.</text><rect x="674" y="16" width="310" height="103" rx="12" fill="#161b30" stroke="#f5afd4" stroke-opacity="0.3240232715647709"/>
          <g fill="none" stroke="#f5afd4" stroke-width="2" stroke-linecap="round" stroke-linejoin="round"><g transform="translate(710 27) rotate(0.0 18 40)"><ellipse cx="18" cy="18" rx="14" ry="18" transform="rotate(-25 18 18)"/><path d="M26 34L36 55"/></g>
        <circle cx="782.0" cy="55.0" r="5" fill="#f5afd4"/>
        <ellipse cx="782.0" cy="93" rx="7.0" ry="1.5" fill="#f5afd4" stroke="none" opacity=".2"/></g>
          <text x="770" y="59" fill="#f0f3ff" font-size="21" font-weight="600">Paddle sports</text>
          <text x="770" y="87" fill="#a6b0ca" font-size="16">Time to play.</text></g></g></svg>